<?xml version="1.0" encoding="utf-8"?>
<!-- Generator: Adobe Illustrator 26.0.0, SVG Export Plug-In . SVG Version: 6.00 Build 0)  -->
<svg version="1.1" id="Layer_1" xmlns="http://www.w3.org/2000/svg" xmlns:xlink="http://www.w3.org/1999/xlink" x="0px" y="0px"
	 viewBox="0 0 1920 1080" style="enable-background:new 0 0 1920 1080;" xml:space="preserve">
<style type="text/css">
	.st0{opacity:0.25;}
	.st1{font-family:'MarcellusSC-Regular';}
	.st2{font-size:280.8152px;}
	.st3{font-family:'Fahkwang-Regular';}
	.st4{font-size:108.1843px;}
	.st5{letter-spacing:16;}
	.st6{display:none;}
	.st7{font-size:275px;}
</style>
<g id="Logo" class="st0">
	<path d="M1399.94,745.34c0,0-66.44-79.62-154.22-121.01c-7.72-3.37-15.09-6.48-22.13-9.37c-80.59-38.95-198.21-52.42-198.21-52.42
		l0.34,234.08l25.13-1.03c0,0,0.69-212.64-0.68-214.46c24.74,7.07,69.82,29.75,102.45,47.05
		c48.63,29.83,146.36,101.14,154.03,196.12c-0.06-1.68-607.97,1.63-608.47,0.63c13.43-118.76,116.28-208.35,168.51-236.45
		c71.43-38.42,184.51-40.49,184.51-41.52c168.85-6.2,245.79-19.28,245.79-19.28s162.13-31.15,82.1-156.46
		c-65.9-103.16-390.03-133-394.67-133.86c-13.43-3.79-380.05-7.23-380.05-7.23l0.35,479.09l24.44-22.11l1.03-329.96l160.07,113.6
		l136.67-128.79l-0.35,181.76l24.79-0.69V255.9l24.96,3.79l-1.21,260.63l25.99-0.9l-0.51-257.15l25.12,2.97l0.05,251.21l24.65-0.26
		c0,0,1.04-193.12,0-194.15c211.71,41.31,233.48,116.7,232.45,116.7c20.66,66.09-125.3,83.09-149.57,86.44
		c-178.14,9.39-210.68,12.48-263.52,30.25C735.7,592.91,604.89,745.97,604.89,745.97l-0.17,104.31c0,0,795.71,0.83,796.05,0.73
		c-0.07-4.95-0.3-9.8-0.68-14.57L1399.94,745.34z M786.13,368.51l-145.61-116.7c84.68-10.32,269.54,0,269.54,0L786.13,368.51z"/>
	<path d="M941.73,572.75c-4.33,0.66-9.51,2.01-15.1,3.78l-0.04,221.67l24.78,0.01l0.05-228
		C945.28,571.77,941.86,572.89,941.73,572.75z"/>
	<path d="M976.2,566.9l-0.04,229.49h24.79l0.04-232.09C991.8,564.86,983.5,565.81,976.2,566.9z"/>
</g>
<g id="Wordmark">
	<text transform="matrix(1 0 0 1 580.2676 578.1166)" class="st1 st2">orimil</text>
	<g>
		<path d="M380.39,837.49c0.2,0.06,0.41,0.11,0.61,0.16l-0.71-0.16H380.39z"/>
	</g>
	<g>
		<path d="M612.34,394.94h-0.1l0.71,0.15C612.76,395.05,612.54,395,612.34,394.94z"/>
		<path d="M1494.5,396.53c-5.85-1.65-12.43-3.16-19.74-4.53c-6.31-1.09-13.8-2.22-22.49-3.08s-17.97-1.25-28.88-2.02l-24.56-0.99
			l-856.99,0.04l1.08,284.39c0.3,3.48,0.67,6.46,1.1,8.92c0.5,2.85,1.07,5.18,1.71,7v0.52h-31.81v-0.52c0.64-1.82,1.21-4.15,1.72-7
			c0.5-2.84,0.91-6.36,1.23-10.55c0.06-0.8-0.17-282.76-0.17-282.76c-10.79,0-20.52,1.06-29.21,1.96
			c-8.68,0.91-16.18,1.88-22.49,2.92c-7.31,1.29-13.89,2.72-19.74,4.27l3.97-20.98c1.1,0.09,2.75,0.18,4.94,0.26
			c2.19,0.09,4.64,0.18,7.34,0.26c2.69,0.09,5.53,0.15,8.5,0.19c2.97,0.05,5.78,0.09,8.43,0.13c2.65,0.05,5,0.09,7.06,0.13
			c2.06,0.05,3.55,0.07,4.46,0.07h51.79l856.26,0.25c0,0,77.54-0.45,80.24-0.55c2.7-0.09,5.14-0.18,7.34-0.27
			c2.19-0.09,3.84-0.18,4.93-0.28L1494.5,396.53z"/>
	</g>
	<path d="M1431.41,685.74v0.99h-35.43v-0.99c0.71-3.45,1.35-7.89,1.91-13.31c0.55-5.43,1.01-12.12,1.37-20.1
		c0.36-7.97,1.11-198.06,0.79-202.5c-0.32-4.43-0.73-8.16-1.23-11.17c-0.5-3.02-1.08-5.49-1.71-7.41v-0.55h31.81v0.55
		c-0.64,1.92-1.22,4.39-1.72,7.41c-0.5,3.01-0.91,6.74-1.23,11.17c-0.32,4.44,1.79,194.53,2.15,202.5
		c0.36,7.98,0.82,14.67,1.38,20.1C1430.05,677.85,1430.69,682.29,1431.41,685.74z"/>
	<text transform="matrix(1 0 0 1 656.832 685.0345)" class="st3 st4 st5">DESIGNS</text>
</g>
<text transform="matrix(1 0 0 1 275 326)" class="st6 st1 st7">orimil</text>
</svg>
