<?xml version="1.0" encoding="utf-8"?>
<!-- Generator: Adobe Illustrator 26.0.0, SVG Export Plug-In . SVG Version: 6.00 Build 0)  -->
<svg version="1.1" id="Layer_1" xmlns="http://www.w3.org/2000/svg" xmlns:xlink="http://www.w3.org/1999/xlink" x="0px" y="0px"
	 viewBox="0 0 1920 1080" style="enable-background:new 0 0 1920 1080;" xml:space="preserve">
<style type="text/css">
	.st0{display:none;}
	.st1{display:inline;}
	.st2{font-family:'MarcellusSC-Regular';}
	.st3{font-size:280.8152px;}
	.st4{display:inline;fill:none;}
	.st5{font-family:'Fahkwang-Regular';}
	.st6{font-size:108.1843px;}
	.st7{letter-spacing:16;}
	.st8{font-size:275px;}
</style>
<g id="Logo">
	<path d="M1399.94,745.34c0,0-66.44-79.62-154.22-121.01c-7.72-3.37-15.09-6.48-22.13-9.37c-80.59-38.95-198.21-52.42-198.21-52.42
		l0.34,234.08l25.13-1.03c0,0,0.69-212.64-0.68-214.46c24.74,7.07,69.82,29.75,102.45,47.05
		c48.63,29.83,146.36,101.14,154.03,196.12c-0.06-1.68-607.97,1.63-608.47,0.63c13.43-118.76,116.28-208.35,168.51-236.45
		c71.43-38.42,184.51-40.49,184.51-41.52c168.85-6.2,245.79-19.28,245.79-19.28s162.13-31.15,82.1-156.46
		c-65.9-103.16-390.03-133-394.67-133.86c-13.43-3.79-380.05-7.23-380.05-7.23l0.35,479.09l24.44-22.11l1.03-329.96l160.07,113.6
		l136.67-128.79l-0.35,181.76l24.79-0.69V255.9l24.96,3.79l-1.21,260.63l25.99-0.9l-0.51-257.15l25.12,2.97l0.05,251.21l24.65-0.26
		c0,0,1.04-193.12,0-194.15c211.71,41.31,233.48,116.7,232.45,116.7c20.66,66.09-125.3,83.09-149.57,86.44
		c-178.14,9.39-210.68,12.48-263.52,30.25C735.7,592.91,604.89,745.97,604.89,745.97l-0.17,104.31c0,0,795.71,0.83,796.05,0.73
		c-0.07-4.95-0.3-9.8-0.68-14.57L1399.94,745.34z M786.13,368.51l-145.61-116.7c84.68-10.32,269.54,0,269.54,0L786.13,368.51z"/>
	<path d="M941.73,572.75c-4.33,0.66-9.51,2.01-15.1,3.78l-0.04,221.67l24.78,0.01l0.05-228
		C945.28,571.77,941.86,572.89,941.73,572.75z"/>
	<path d="M976.2,566.9l-0.04,229.49h24.79l0.04-232.09C991.8,564.86,983.5,565.81,976.2,566.9z"/>
</g>
<g id="Wordmark" class="st0">
	<text transform="matrix(1 0 0 1 580.2676 578.1166)" class="st1 st2 st3">orimil</text>
	<g class="st1">
		<path d="M1423.39,386.9c10.92,0.77,20.19,1.16,28.88,2.02c8.69,0.86,16.18,1.99,22.49,3.09c7.31,1.37,13.89,2.88,19.74,4.52
			l-3.98-22.21c-1.1,0.09-2.74,0.19-4.94,0.27c-2.19,0.09-4.64,0.19-7.34,0.27c-2.7,0.09-5.53,0.16-8.5,0.21
			c-2.97,0.05-5.78,0.09-8.43,0.14c-2.65,0.05-5,0.09-7.06,0.14c-2.06,0.05-3.54,0.07-4.46,0.07h-51.79l0.08,10.47"/>
		<path d="M380.39,837.49c0.2,0.06,0.41,0.11,0.61,0.16l-0.71-0.16H380.39z"/>
	</g>
	<g class="st1">
		<path d="M516.7,510.22c0,7.34,2.07,13.82,1.84,19.3c-0.07,1.58-0.31,3.01-0.39,4.47h21.54c-0.07-1.46,1.31-2.8,1.26-4.38
			c-0.18-5.48,0.7-12.06,0.7-19.39V386.55l0.1-11.4h-51.79c-0.91,0-2.4-0.02-4.46-0.06c-2.06-0.04-4.41-0.08-7.06-0.13
			c-2.65-0.04-5.46-0.08-8.43-0.13c-2.97-0.04-5.8-0.11-8.5-0.19c-2.69-0.08-5.14-0.17-7.34-0.26c-2.19-0.08-3.84-0.17-4.94-0.26
			l-3.98,20.98c5.85-1.55,12.43-2.98,19.74-4.27c6.31-1.04,13.8-2.01,22.49-2.91c8.69-0.91,18.42-1.36,29.21-1.36V510.22z"/>
		<path d="M612.34,394.94h-0.1l0.71,0.15C612.76,395.05,612.54,395,612.34,394.94z"/>
		<path d="M542.79,668.71c-0.32-4.19-0.57-9.17-0.75-14.96c-0.19-5.78-0.27-12.56-0.27-20.33v-32.63c0-7.77,0.09-14.52,0.27-20.27
			c0.1-3.05,0.21-5.86,0.35-8.47h-25.11c0.14,2.61,0.25,5.42,0.35,8.47c0.18,5.74,0.27,12.5,0.27,20.27v32.63
			c0,7.77-0.09,14.55-0.27,20.33c-0.19,5.79-0.44,10.77-0.75,14.96c-0.32,4.19-0.73,7.7-1.23,10.55c-0.5,2.85-1.08,5.18-1.71,6.99
			v0.52h31.81v-0.52c-0.64-1.81-1.21-4.14-1.71-6.99C543.52,676.42,543.11,672.9,542.79,668.71z"/>
	</g>
	<polygon class="st1" points="516.89,387.48 517.06,686.49 542.98,686.49 541.84,387.48 	"/>
	<path class="st1" d="M1400.05,449.83c0.32,4.44,0.57,9.69,0.75,15.77c0.18,6.08,0.27,13.23,0.27,21.46v34.55
		c0,8.23,0.87,15.37,0.69,21.49c-0.03,1.16-0.02,2.23-0.05,3.33l22.83,0.03c-0.04-1.1-0.1-2.09-0.14-3.25
		c-0.19-6.12,0.53-13.37,0.53-21.6v-34.55c0-8.23,0.09-15.38,0.27-21.46c0.18-6.08,0.43-11.33,0.75-15.77
		c0.32-4.43,0.73-8.16,1.23-11.18c0.5-3.02,1.07-5.48,1.71-7.4v-0.55h-31.81v0.55c0.64,1.92,1.21,4.39,1.71,7.4
		C1399.32,441.67,1399.73,445.4,1400.05,449.83z"/>
	<rect x="539.3" y="375.47" class="st1" width="920.51" height="10.43"/>
	<polygon class="st4" points="1399.52,392.31 1399.69,698.85 1424.55,698.85 1423.46,392.31 	"/>
	<path class="st1" d="M1428.12,652.33c-0.36-7.97-0.64-17.46-0.84-28.48c-0.21-11.01-1.64-24.05-1.64-38.85l-1.13-60.46
		c0-14.8-0.61-29.08-0.4-40.01c0.11-5.81-0.2-12.47-0.05-17.44l-23.62,1.06c0.15,4.97-0.11,11.34,0,17.15
		c0.2,10.94-0.04,22.9-0.04,37.7v62.14c0,14.8-0.1,27.7-0.31,38.72c-0.21,11.02-0.48,20.51-0.84,28.48
		c-0.36,7.98-0.82,14.67-1.37,20.1c-0.56,5.43-1.2,9.86-1.91,13.32v0.99h35.43v-0.99c-0.71-3.45-1.35-7.89-1.91-13.32
		C1428.94,667,1428.48,660.31,1428.12,652.33z"/>
	<text transform="matrix(1 0 0 1 656.832 685.0345)" class="st1 st5 st6 st7">DESIGNS</text>
</g>
<text transform="matrix(1 0 0 1 275 326)" class="st0 st2 st8">orimil</text>
</svg>
